<?xml version="1.0" encoding="utf-8"?>
<!-- Generator: Adobe Illustrator 19.0.0, SVG Export Plug-In . SVG Version: 6.00 Build 0)  -->
<svg version="1.1" id="Layer_1" xmlns="http://www.w3.org/2000/svg" xmlns:xlink="http://www.w3.org/1999/xlink" x="0px" y="0px"
	 viewBox="0 0 46.3 45.9" style="enable-background:new 0 0 46.3 45.9;" xml:space="preserve">
<style type="text/css">
	.st0{fill:url(#XMLID_4_);}
</style>
<linearGradient id="XMLID_4_" gradientUnits="userSpaceOnUse" x1="23.125" y1="45.875" x2="23.125" y2="-8.112693e-010">
	<stop  offset="0" style="stop-color:#8C0FFF"/>
	<stop  offset="1" style="stop-color:#FF069C"/>
</linearGradient>
<path id="XMLID_2_" class="st0" d="M41.2,0H5.1C2.3,0,0,2.3,0,5.1v35.8c0,2.8,2.3,5.1,5.1,5.1h36.1c2.8,0,5.1-2.3,5.1-5.1V5.1
	C46.3,2.3,44,0,41.2,0z"/>
<path id="XMLID_3_" d="M33,10.2H13.2c-1.6,0-2.8,1.3-2.8,2.8v19.8c0,1.6,1.3,2.8,2.8,2.8H33c1.6,0,2.8-1.3,2.8-2.8V13
	C35.9,11.5,34.6,10.2,33,10.2z M18.9,30H16v-9.9h2.8V30z M24.5,30h-2.8V15.9h2.8V30z M30.2,30h-2.8v-5.7h2.8V30z"/>
</svg>
