<?xml version="1.0" encoding="utf-8"?>
<!-- Generator: Adobe Illustrator 19.0.0, SVG Export Plug-In . SVG Version: 6.00 Build 0)  -->
<svg version="1.1" id="Layer_1" xmlns="http://www.w3.org/2000/svg" xmlns:xlink="http://www.w3.org/1999/xlink" x="0px" y="0px"
	 viewBox="0 0 46 46" style="enable-background:new 0 0 46 46;" xml:space="preserve">
<style type="text/css">
	.st0{fill:url(#XMLID_46_);}
	.st1{fill:url(#XMLID_47_);}
	.st2{fill:url(#XMLID_48_);}
</style>
<linearGradient id="XMLID_46_" gradientUnits="userSpaceOnUse" x1="0" y1="23" x2="46" y2="23">
	<stop  offset="0" style="stop-color:#0675EC"/>
	<stop  offset="1" style="stop-color:#8C0FFF"/>
</linearGradient>
<path id="XMLID_8_" class="st0" d="M46,3.8C46,1.7,44.3,0,42.2,0H3.8C1.7,0,0,1.7,0,3.8v38.3C0,44.3,1.7,46,3.8,46h38.3
	c2.1,0,3.8-1.7,3.8-3.8V3.8z M43,39.2c0,2.1-1.7,3.8-3.8,3.8H6.8C4.7,43,3,41.3,3,39.2V6.8C3,4.7,4.7,3,6.8,3h32.3
	C41.3,3,43,4.7,43,6.8V39.2z"/>
<linearGradient id="XMLID_47_" gradientUnits="userSpaceOnUse" x1="17.4967" y1="20.0507" x2="30.6824" y2="20.0507" gradientTransform="matrix(0.9164 0.9164 -0.7071 0.7071 7.6134 -8.656)">
	<stop  offset="0" style="stop-color:#0675EC"/>
	<stop  offset="0.6613" style="stop-color:#8C0FFF"/>
</linearGradient>
<path id="XMLID_4_" class="st1" d="M17.2,33.6l-7.8-7.8c-1.2-1.2-1.2-3.1,0-4.3l0,0c1.2-1.2,3.1-1.2,4.3,0l7.8,7.8
	c1.2,1.2,1.2,3.1,0,4.3l0,0C20.4,34.8,18.4,34.8,17.2,33.6z"/>
<linearGradient id="XMLID_48_" gradientUnits="userSpaceOnUse" x1="32.2489" y1="32.9907" x2="16.2813" y2="17.0231" gradientTransform="matrix(0.7071 -0.7071 0.7071 0.7071 -7.2118 22.7141)">
	<stop  offset="0" style="stop-color:#0675EC"/>
	<stop  offset="0.7581" style="stop-color:#8C0FFF"/>
</linearGradient>
<path id="XMLID_5_" class="st2" d="M38,17.1L21.5,33.6c-1.2,1.2-3.1,1.2-4.3,0l0,0c-1.2-1.2-1.2-3.1,0-4.3l16.5-16.5
	c1.2-1.2,3.1-1.2,4.3,0l0,0C39.2,14,39.2,16,38,17.1z"/>
</svg>
