<?xml version="1.0" encoding="utf-8"?>
<!-- Generator: Adobe Illustrator 19.0.0, SVG Export Plug-In . SVG Version: 6.00 Build 0)  -->
<svg version="1.1" id="Layer_1" xmlns="http://www.w3.org/2000/svg" xmlns:xlink="http://www.w3.org/1999/xlink" x="0px" y="0px"
	 viewBox="0 0 46.3 45.9" style="enable-background:new 0 0 46.3 45.9;" xml:space="preserve">
<style type="text/css">
	.st0{fill:url(#XMLID_3_);}
	.st1{stroke:#000000;stroke-miterlimit:10;}
</style>
<linearGradient id="XMLID_3_" gradientUnits="userSpaceOnUse" x1="23.125" y1="45.875" x2="23.125" y2="-8.112693e-010">
	<stop  offset="0" style="stop-color:#0675EC"/>
	<stop  offset="1" style="stop-color:#8C0FFF"/>
</linearGradient>
<path id="XMLID_2_" class="st0" d="M41.2,0H5.1C2.3,0,0,2.3,0,5.1v35.8c0,2.8,2.3,5.1,5.1,5.1h36.1c2.8,0,5.1-2.3,5.1-5.1V5.1
	C46.3,2.3,44,0,41.2,0z"/>
<path id="XMLID_4_" class="st1" d="M10.9,24.3h10.9V10.7H10.9V24.3z M10.9,35.2h10.9V27H10.9V35.2z M24.5,35.2h10.9V21.6H24.5V35.2z
	 M24.5,10.7v8.2h10.9v-8.2H24.5z"/>
</svg>
