<?xml version="1.0" encoding="utf-8"?>
<!-- Generator: Adobe Illustrator 19.0.0, SVG Export Plug-In . SVG Version: 6.00 Build 0)  -->
<svg version="1.1" id="Layer_1" xmlns="http://www.w3.org/2000/svg" xmlns:xlink="http://www.w3.org/1999/xlink" x="0px" y="0px"
	 viewBox="0 0 46.3 45.9" style="enable-background:new 0 0 46.3 45.9;" xml:space="preserve">
<style type="text/css">
	.st0{fill:url(#XMLID_30_);}
</style>
<linearGradient id="XMLID_30_" gradientUnits="userSpaceOnUse" x1="23.125" y1="45.875" x2="23.125" y2="-8.112693e-010">
	<stop  offset="0" style="stop-color:#FF069C"/>
	<stop  offset="1" style="stop-color:#FC6F00"/>
</linearGradient>
<path id="XMLID_2_" class="st0" d="M41.2,0H5.1C2.3,0,0,2.3,0,5.1v35.8c0,2.8,2.3,5.1,5.1,5.1h36.1c2.8,0,5.1-2.3,5.1-5.1V5.1
	C46.3,2.3,44,0,41.2,0z"/>
<g id="XMLID_3_">
	<path id="Facebook" d="M18.5,12.2c0,0.9,0,4.8,0,4.8h-3.5v5.9h3.5v17.6h7.3V22.9h4.9c0,0,0.5-2.8,0.7-5.9c-0.6,0-5.5,0-5.5,0
		s0-3.4,0-4c0-0.6,0.8-1.4,1.6-1.4c0.8,0,2.4,0,4,0c0-0.8,0-3.6,0-6.2c-2,0-4.4,0-5.4,0C18.3,5.4,18.5,11.3,18.5,12.2z"/>
</g>
</svg>
