<?xml version="1.0" encoding="utf-8"?>
<!-- Generator: Adobe Illustrator 19.0.0, SVG Export Plug-In . SVG Version: 6.00 Build 0)  -->
<svg version="1.1" id="Layer_1" xmlns="http://www.w3.org/2000/svg" xmlns:xlink="http://www.w3.org/1999/xlink" x="0px" y="0px"
	 viewBox="0 0 46.3 45.9" style="enable-background:new 0 0 46.3 45.9;" xml:space="preserve">
<style type="text/css">
	.st0{fill:#8C0FFF;}
	.st1{fill:url(#XMLID_96_);}
</style>
<g id="XMLID_1_">
	<path id="XMLID_3_" class="st0" d="M1.5,0h14.5C22.6,0,28,5.3,28,11.9v8.5c0,3.3-2.7,6.1-6.1,6.1h-9.8C5.4,26.5,0,21.1,0,14.4V1.5
		C0,0.7,0.7,0,1.5,0z"/>
	<linearGradient id="XMLID_96_" gradientUnits="userSpaceOnUse" x1="37.7095" y1="45.7234" x2="14.7905" y2="6.0266">
		<stop  offset="0" style="stop-color:#FF069C"/>
		<stop  offset="1" style="stop-color:#FC6F00"/>
	</linearGradient>
	<path id="XMLID_2_" class="st1" d="M34.3,5.9h-16c-6.6,0-12,5.4-12,12v16c0,6.6,5.4,12,12,12h16c6.6,0,12-5.4,12-12v-16
		C46.3,11.3,40.8,5.9,34.3,5.9z"/>
</g>
</svg>
