<?xml version="1.0" encoding="utf-8"?>
<!-- Generator: Adobe Illustrator 19.0.0, SVG Export Plug-In . SVG Version: 6.00 Build 0)  -->
<svg version="1.1" id="Layer_1" xmlns="http://www.w3.org/2000/svg" xmlns:xlink="http://www.w3.org/1999/xlink" x="0px" y="0px"
	 viewBox="0 0 46.3 45.9" style="enable-background:new 0 0 46.3 45.9;" xml:space="preserve">
<style type="text/css">
	.st0{fill:url(#XMLID_30_);}
</style>
<linearGradient id="XMLID_30_" gradientUnits="userSpaceOnUse" x1="23.125" y1="45.875" x2="23.125" y2="-8.112693e-010">
	<stop  offset="0" style="stop-color:#FF069C"/>
	<stop  offset="1" style="stop-color:#FC6F00"/>
</linearGradient>
<path id="XMLID_2_" class="st0" d="M41.2,0H5.1C2.3,0,0,2.3,0,5.1v35.8c0,2.8,2.3,5.1,5.1,5.1h36.1c2.8,0,5.1-2.3,5.1-5.1V5.1
	C46.3,2.3,44,0,41.2,0z"/>
<g id="XMLID_37_">
	<path id="XMLID_38_" d="M12,7.8h22.4c2.1,0,3.9,1.6,3.9,3.9v22.4c0,2.3-1.7,3.9-3.9,3.9H12c-2.1,0-3.9-1.6-3.9-3.9V11.7
		C8.1,9.4,9.8,7.8,12,7.8L12,7.8z M30,11.2c-0.7,0-1.4,0.6-1.4,1.4v3.2c0,0.7,0.6,1.4,1.4,1.4h3.4c0.7,0,1.4-0.6,1.4-1.4v-3.2
		c0-0.7-0.6-1.4-1.4-1.4H30L30,11.2z M34.8,20.5h-2.7c0.3,0.8,0.4,1.7,0.4,2.6c0,5-4.2,9.1-9.4,9.1c-5.2,0-9.4-4.1-9.4-9.1
		c0-0.9,0.1-1.8,0.4-2.6h-2.8v12.7c0,0.7,0.5,1.2,1.2,1.2h21c0.7,0,1.2-0.5,1.2-1.2L34.8,20.5L34.8,20.5z M23.2,16.9
		c-3.3,0-6.1,2.6-6.1,5.9s2.7,5.9,6.1,5.9c3.3,0,6.1-2.6,6.1-5.9S26.5,16.9,23.2,16.9z"/>
</g>
</svg>
