<?xml version="1.0" encoding="utf-8"?>
<!-- Generator: Adobe Illustrator 19.0.0, SVG Export Plug-In . SVG Version: 6.00 Build 0)  -->
<svg version="1.1" id="Layer_1" xmlns="http://www.w3.org/2000/svg" xmlns:xlink="http://www.w3.org/1999/xlink" x="0px" y="0px"
	 viewBox="0 0 46.3 45.9" style="enable-background:new 0 0 46.3 45.9;" xml:space="preserve">
<style type="text/css">
	.st0{fill:url(#XMLID_31_);}
</style>
<linearGradient id="XMLID_31_" gradientUnits="userSpaceOnUse" x1="23.125" y1="45.875" x2="23.125" y2="-8.112693e-010">
	<stop  offset="0" style="stop-color:#FF069C"/>
	<stop  offset="1" style="stop-color:#FC6F00"/>
</linearGradient>
<path id="XMLID_2_" class="st0" d="M41.2,0H5.1C2.3,0,0,2.3,0,5.1v35.8c0,2.8,2.3,5.1,5.1,5.1h36.1c2.8,0,5.1-2.3,5.1-5.1V5.1
	C46.3,2.3,44,0,41.2,0z"/>
<g id="XMLID_35_">
	<path id="LinkedIn" d="M37.3,26v10.5h-6.1v-9.8c0-2.5-0.9-4.1-3.1-4.1c-1.7,0-2.7,1.1-3.1,2.2c-0.2,0.4-0.2,0.9-0.2,1.5v10.2h-6.1
		c0,0,0.1-16.6,0-18.3h6.1v2.6c0,0,0,0,0,0.1h0v-0.1c0.8-1.2,2.3-3,5.5-3C34.3,17.8,37.3,20.4,37.3,26z M12.4,9.4
		c-2.1,0-3.4,1.4-3.4,3.2c0,1.8,1.3,3.2,3.4,3.2h0c2.1,0,3.4-1.4,3.4-3.2C15.7,10.7,14.5,9.4,12.4,9.4z M9.3,36.5h6.1V18.2H9.3V36.5
		z"/>
</g>
</svg>
