<?xml version="1.0" encoding="utf-8"?>
<!-- Generator: Adobe Illustrator 19.0.0, SVG Export Plug-In . SVG Version: 6.00 Build 0)  -->
<svg version="1.1" id="Layer_1" xmlns="http://www.w3.org/2000/svg" xmlns:xlink="http://www.w3.org/1999/xlink" x="0px" y="0px"
	 viewBox="0 0 46.3 45.9" style="enable-background:new 0 0 46.3 45.9;" xml:space="preserve">
<style type="text/css">
	.st0{fill:url(#XMLID_3_);}
	.st1{clip-path:url(#XMLID_11_);}
</style>
<linearGradient id="XMLID_3_" gradientUnits="userSpaceOnUse" x1="23.125" y1="-8.112693e-010" x2="23.125" y2="45.875">
	<stop  offset="0" style="stop-color:#F69B11"/>
	<stop  offset="1" style="stop-color:#FF069C"/>
</linearGradient>
<path id="XMLID_2_" class="st0" d="M41.2,0H5.1C2.3,0,0,2.3,0,5.1v35.8c0,2.8,2.3,5.1,5.1,5.1h36.1c2.8,0,5.1-2.3,5.1-5.1V5.1
	C46.3,2.3,44,0,41.2,0z"/>
<g id="XMLID_4_">
	<defs>
		<rect id="XMLID_10_" x="6.8" y="6.6" width="32.6" height="32.6"/>
	</defs>
	<clipPath id="XMLID_11_">
		<use xlink:href="#XMLID_10_"  style="overflow:visible;"/>
	</clipPath>
	<path id="XMLID_5_" class="st1" d="M27.2,10.7l3.1,3.1l-3.9,3.9l1.9,1.9l3.9-3.9l3.1,3.1v-8.2H27.2z M10.9,18.9l3.1-3.1l3.9,3.9
		l1.9-1.9l-3.9-3.9l3.1-3.1h-8.2V18.9z M19,35.2L15.9,32l3.9-3.9l-1.9-1.9L14,30.1L10.9,27v8.2H19z M35.4,27l-3.1,3.1l-3.9-3.9
		l-1.9,1.9l3.9,3.9l-3.1,3.1h8.2V27z"/>
</g>
</svg>
