<?xml version="1.0" encoding="utf-8"?>
<!-- Generator: Adobe Illustrator 19.0.0, SVG Export Plug-In . SVG Version: 6.00 Build 0)  -->
<svg version="1.1" id="Layer_1" xmlns="http://www.w3.org/2000/svg" xmlns:xlink="http://www.w3.org/1999/xlink" x="0px" y="0px"
	 viewBox="0 0 46.3 45.9" style="enable-background:new 0 0 46.3 45.9;" xml:space="preserve">
<style type="text/css">
	.st0{fill:url(#XMLID_3_);}
</style>
<linearGradient id="XMLID_3_" gradientUnits="userSpaceOnUse" x1="37.91" y1="48.5459" x2="8.34" y2="-2.6709">
	<stop  offset="0" style="stop-color:#C94115"/>
	<stop  offset="1" style="stop-color:#F69B11"/>
</linearGradient>
<path id="XMLID_2_" class="st0" d="M41.2,0H5.1C2.3,0,0,2.3,0,5.1v35.8c0,2.8,2.3,5.1,5.1,5.1h36.1c2.8,0,5.1-2.3,5.1-5.1V5.1
	C46.3,2.3,44,0,41.2,0z"/>
<path id="XMLID_98_" d="M23.1,7.4L10.4,13v8.5c0,7.9,5.4,15.2,12.7,17c7.3-1.8,12.7-9.1,12.7-17V13L23.1,7.4z M23.1,22.9H33
	c-0.7,5.8-4.6,11-9.9,12.6V22.9l-9.9,0v-8.1l9.9-4.4C23.1,10.5,23.1,22.9,23.1,22.9z"/>
</svg>
