<?xml version="1.0" encoding="utf-8"?>
<!-- Generator: Adobe Illustrator 19.0.0, SVG Export Plug-In . SVG Version: 6.00 Build 0)  -->
<svg version="1.1" id="Layer_1" xmlns="http://www.w3.org/2000/svg" xmlns:xlink="http://www.w3.org/1999/xlink" x="0px" y="0px"
	 viewBox="0 0 46.3 45.9" style="enable-background:new 0 0 46.3 45.9;" xml:space="preserve">
<style type="text/css">
	.st0{fill:url(#XMLID_98_);}
</style>
<linearGradient id="XMLID_98_" gradientUnits="userSpaceOnUse" x1="37.91" y1="48.5459" x2="8.34" y2="-2.6709">
	<stop  offset="0" style="stop-color:#FF069C"/>
	<stop  offset="1" style="stop-color:#FC6F00"/>
</linearGradient>
<path id="XMLID_2_" class="st0" d="M41.2,0H5.1C2.3,0,0,2.3,0,5.1v35.8c0,2.8,2.3,5.1,5.1,5.1h36.1c2.8,0,5.1-2.3,5.1-5.1V5.1
	C46.3,2.3,44,0,41.2,0z"/>
<path id="XMLID_97_" d="M17.4,31.6c-1.6,0-2.9,1.3-2.9,2.9s1.3,2.9,2.9,2.9s2.9-1.3,2.9-2.9S19,31.6,17.4,31.6z M8.8,8.6v2.9h2.9
	l5.2,10.9l-1.9,3.5c-0.2,0.4-0.4,0.9-0.4,1.4c0,1.6,1.3,2.9,2.9,2.9h17.3v-2.9H18c-0.2,0-0.4-0.2-0.4-0.4l0-0.2l1.3-2.3h10.7
	c1.1,0,2-0.6,2.5-1.5l5.1-9.3c0.1-0.2,0.2-0.4,0.2-0.7c0-0.8-0.6-1.4-1.4-1.4H14.8l-1.4-2.9C13.5,8.6,8.8,8.6,8.8,8.6z M31.8,31.6
	c-1.6,0-2.9,1.3-2.9,2.9s1.3,2.9,2.9,2.9s2.9-1.3,2.9-2.9S33.3,31.6,31.8,31.6z"/>
</svg>
