<?xml version="1.0" encoding="utf-8"?>
<!-- Generator: Adobe Illustrator 19.0.0, SVG Export Plug-In . SVG Version: 6.00 Build 0)  -->
<svg version="1.1" id="Layer_1" xmlns="http://www.w3.org/2000/svg" xmlns:xlink="http://www.w3.org/1999/xlink" x="0px" y="0px"
	 viewBox="0 0 46.3 45.9" style="enable-background:new 0 0 46.3 45.9;" xml:space="preserve">
<style type="text/css">
	.st0{fill:url(#XMLID_30_);}
	.st1{fill:#010002;}
</style>
<linearGradient id="XMLID_30_" gradientUnits="userSpaceOnUse" x1="23.125" y1="45.875" x2="23.125" y2="-8.112693e-010">
	<stop  offset="0" style="stop-color:#FF069C"/>
	<stop  offset="1" style="stop-color:#FC6F00"/>
</linearGradient>
<path id="XMLID_2_" class="st0" d="M41.2,0H5.1C2.3,0,0,2.3,0,5.1v35.8c0,2.8,2.3,5.1,5.1,5.1h36.1c2.8,0,5.1-2.3,5.1-5.1V5.1
	C46.3,2.3,44,0,41.2,0z"/>
<g id="XMLID_31_">
	<g id="XMLID_32_">
		<path id="XMLID_29_" class="st1" d="M42.3,11c-1.4,0.6-2.9,1-4.5,1.2c1.6-1,2.9-2.5,3.5-4.3c-1.5,0.9-3.2,1.6-5,1.9
			c-1.4-1.5-3.5-2.5-5.7-2.5c-4.3,0-7.9,3.5-7.9,7.9c0,0.6,0.1,1.2,0.2,1.8c-6.5-0.3-12.3-3.5-16.2-8.2c-0.7,1.2-1.1,2.5-1.1,4
			c0,2.7,1.4,5.1,3.5,6.5c-1.3,0-2.5-0.4-3.6-1v0.1c0,3.8,2.7,7,6.3,7.7c-0.7,0.2-1.4,0.3-2.1,0.3c-0.5,0-1-0.1-1.5-0.1
			c1,3.1,3.9,5.4,7.3,5.5c-2.7,2.1-6.1,3.4-9.8,3.4c-0.6,0-1.3,0-1.9-0.1c3.5,2.2,7.6,3.5,12.1,3.5c14.5,0,22.4-12,22.4-22.4l0-1
			C39.9,14,41.2,12.6,42.3,11z"/>
	</g>
</g>
</svg>
