<?xml version="1.0" encoding="utf-8"?>
<!-- Generator: Adobe Illustrator 19.0.0, SVG Export Plug-In . SVG Version: 6.00 Build 0)  -->
<svg version="1.1" id="Layer_1" xmlns="http://www.w3.org/2000/svg" xmlns:xlink="http://www.w3.org/1999/xlink" x="0px" y="0px"
	 viewBox="0 0 960 560" style="enable-background:new 0 0 960 560;" xml:space="preserve">
<style type="text/css">
	.st0{display:none;fill:#FF069C;}
	.st1{fill:#C7ACFF;stroke:#C7ACFF;stroke-width:20;}
	.st2{display:none;}
	.st3{display:inline;fill:#E6F2FE;stroke:#C7ACFF;stroke-width:10;stroke-miterlimit:10;}
	.st4{fill:#E6F2FE;}
	.st5{display:none;fill:#374B65;}
	.st6{display:none;fill:url(#SVGID_1_);}
	.st7{display:none;fill:url(#SVGID_2_);}
	.st8{display:none;fill:#2F4056;}
	.st9{display:none;fill:#151F25;}
	.st10{display:none;fill:url(#SVGID_3_);}
	.st11{display:none;fill:#B3046D;}
	.st12{display:inline;fill:none;stroke:#000000;stroke-linecap:round;stroke-opacity:0.1;}
	.st13{display:inline;fill:none;stroke:#E6F2FE;stroke-linecap:round;stroke-opacity:0.2;}
	.st14{display:none;fill:#FFFFFF;fill-opacity:0.3;}
</style>
<rect x="0" y="10" class="st0" width="960" height="540"/>
<g>
	<path class="st1" d="M736.8,550h-60l18-240h24L736.8,550z"/>
</g>
<g class="st2">
	<path class="st3" d="M918.6,391c-28.3,0-53.5,13-70,33.4c-17.6-10.6-31.4-11.8-50,4.6c-21.6-13.4-52.8-12.8-73.1,10.3
		c-13.9-8.1-24.7-9.3-39.4,2.8c-14.1-9.1-41.7-9.7-57.5,10.7c-11.8-7.1-30.4-2.9-36.2,13.7c-5-2.3-10.4-1.1-13.3,3
		c-19.8-17.9-36.6-18.5-55.5,0.2c-4.5-3.7-10.5-5.5-16.1-2.3c-5.7-14-23.1-23-40.2-13.1c-3.9-5-13.5-8-23.5-1.5
		c-18.3-23.9-38.7-21.5-52-13.4c-24.5-28.5-61.7-25.5-89,3.1c-22.5-17.2-47.7-10.6-58.1,10.4c-5.8-5.9-19.6-10.1-31,6.8
		c-6.6-11.6-17.4-12.8-28.5-7.6c-14.7-29.2-39.3-38.8-72.5-27.5C96.1,404,70.9,391,42.6,391c-49.7,0-90,40.3-90,90v170.4h1056V481
		C1008.6,431.3,968.3,391,918.6,391z"/>
</g>
<path class="st4" d="M736.8,550h-60l18-240h24L736.8,550z"/>
<path class="st5" d="M672.4,324.4c-0.7-3.1-4.4-4.4-7-2.6c-3.4,2.5-7.4,5.5-8,6.1c-8.9,8.7-15,20.7-17.8,32.8
	c-0.8,3.6-4,14.3-1.1,17.3c3.5,3.5,11.2-2.2,14-4.2c5.6-3.7,11.2-8.2,18.4-7.7C681.4,366.8,675.5,337.7,672.4,324.4L672.4,324.4z"/>
<linearGradient id="SVGID_1_" gradientUnits="userSpaceOnUse" x1="-9.094947e-013" y1="559.5" x2="1" y2="559.5" gradientTransform="matrix(85.08 0 0 -176.1 662.4 98805.8203)">
	<stop  offset="0.16" style="stop-color:#11191E"/>
	<stop  offset="0.5" style="stop-color:#151F25"/>
	<stop  offset="1" style="stop-color:#11191E"/>
</linearGradient>
<path class="st6" d="M747.5,286.1c-0.1-44.8-21.2-96.3-42.5-96.3s-42.4,51.4-42.5,96.2c0,0.2,0,0.4,0.1,0.7l9.1,79.3h69.3
	C742.7,344.3,747.5,286.2,747.5,286.1L747.5,286.1z"/>
<path class="st5" d="M741.3,324.4c0.7-3.1,4.4-4.4,7-2.6c3.4,2.5,7.4,5.5,8,6.1c8.8,8.7,14.9,20.7,17.8,32.8
	c0.8,3.6,4,14.3,1.1,17.3c-3.5,3.5-11.1-2.2-14-4.2c-5.6-3.7-11.2-8.2-18.4-7.7C732.2,366.8,738.1,337.7,741.3,324.4L741.3,324.4z"
	/>
<path class="st5" d="M671.6,365.9l1,8.2c0.3,2.8,2.7,4.9,5.5,4.9h56.7c2.9,0,5.3-2.3,5.5-5.2c0,0,0.2-3,0.7-7.9H671.6L671.6,365.9z"
	/>
<linearGradient id="SVGID_2_" gradientUnits="userSpaceOnUse" x1="1" y1="559.5" x2="8.320521e-007" y2="559.5" gradientTransform="matrix(42.9235 0 0 -176.1 704.5565 98805.8203)">
	<stop  offset="0" style="stop-color:#141D23"/>
	<stop  offset="1" style="stop-color:#121B21"/>
</linearGradient>
<path class="st7" d="M747.5,286.1c-0.1-44.8-21.2-96.3-42.5-96.3c-3.6,0,19.4,41,17.5,96.3c-0.2,7.8-4.8,59.7-6.6,79.8h25
	C742.7,344.3,747.5,286.2,747.5,286.1L747.5,286.1z"/>
<path class="st8" d="M715.9,365.9c-0.4,4.9-0.7,7.9-0.7,7.9c-0.2,2.9-2.6,5.2-5.5,5.2h25.1c2.9,0,5.3-2.3,5.5-5.2c0,0,0.2-3,0.7-7.9
	H715.9L715.9,365.9z"/>
<path class="st9" d="M705,233.7c-12.4,0-22.5,10.1-22.5,22.5c0,12.4,10.1,22.5,22.5,22.5s22.5-10.1,22.5-22.5
	C727.5,243.8,717.4,233.7,705,233.7z"/>
<linearGradient id="SVGID_3_" gradientUnits="userSpaceOnUse" x1="1175" y1="95" x2="1175" y2="244" gradientTransform="matrix(0.6 0 0 -0.6 -3.051758e-005 346)">
	<stop  offset="0" style="stop-color:#E6F2FE"/>
	<stop  offset="0.5" style="stop-color:#FF069C"/>
</linearGradient>
<path class="st10" d="M705,236.9c-10.7,0-19.4,8.7-19.4,19.4c0,10.7,8.6,19.4,19.4,19.4c10.7,0,19.4-8.7,19.4-19.4
	C724.4,245.6,715.7,236.9,705,236.9z"/>
<path class="st11" d="M687.9,258.6c0-10.7,8.6-19.4,19.4-19.4c4.7,0,9.1,1.7,12.5,4.6c-3.5-4.2-8.9-6.8-14.8-6.8
	c-10.7,0-19.4,8.7-19.4,19.4c0,5.9,2.6,11.2,6.8,14.8C689.6,267.7,687.9,263.3,687.9,258.6L687.9,258.6z"/>
<path class="st5" d="M705,189.4c-9.3,0-18.5,9.7-26,24.4c7.2,1.4,16.2,2.2,26,2.2s18.8-0.8,26-2.2
	C723.5,199.1,714.2,189.4,705,189.4z"/>
<path class="st8" d="M706.1,189.5c-2,9.1,4.3,17.8,7,26.3c6.6-0.3,12.7-1,17.8-2C723.8,199.8,715.1,190.2,706.1,189.5L706.1,189.5z"
	/>
<g class="st2">
	<path class="st12" d="M669.6,343.8c0,0,28.7,2.5,38.8,2.5c10.1,0,33.8-2.5,33.8-2.5"/>
	<path class="st13" d="M669.6,344.4c0,0,28.7,2.5,38.8,2.5c10.1,0,33.8-2.5,33.8-2.5"/>
</g>
<path class="st14" d="M722.4,256c0-8.3-5.8-15.2-13.5-17v33.9C716.6,271.2,722.4,264.3,722.4,256z"/>
</svg>
